<?xml version="1.0" encoding="UTF-8"?>
<svg xmlns="http://www.w3.org/2000/svg" version="1.1" viewBox="0 0 48 48">
  <!-- Generator: Adobe Illustrator 28.7.1, SVG Export Plug-In . SVG Version: 1.2.0 Build 142)  -->
  <g>
    <g id="GLYPH">
      <g>
        <path d="M16,13h.71002c2.37,0,4.28998-1.79004,4.28998-4,0-.44-.38-.79999-.85999-.79999h-.02002c.53998-.67004.88-1.5.88-2.40002,0-.44-.38-.79999-.85999-.79999h-1.71002c-1.40997,0-2.64996.64001-3.42999,1.62-.78003-.97998-2.02002-1.62-3.42999-1.62h-1.71002c-.47998,0-.85999.35999-.85999.79999,0,.90002.34003,1.72998.88,2.40002h-.02002c-.47998,0-.85999.35999-.85999.79999,0,2.20996,1.91998,4,4.28998,4h.71002v6h2v-6Z"/>
        <path d="M34,13h.71002c2.37,0,4.28998-1.79004,4.28998-4,0-.44-.38-.79999-.85999-.79999h-.02002c.53998-.67004.88-1.5.88-2.40002,0-.44-.38-.79999-.85999-.79999h-1.71002c-1.40997,0-2.64996.64001-3.42999,1.62-.78003-.97998-2.02002-1.62-3.42999-1.62h-1.71002c-.47998,0-.85999.35999-.85999.79999,0,.90002.34003,1.72998.88,2.40002h-.02002c-.47998,0-.85999.35999-.85999.79999,0,2.20996,1.91998,4,4.28998,4h.71002v6h2v-6Z"/>
        <path d="M16,19v3c0,.54999-.45001,1-1,1s-1-.45001-1-1v-3h-3c-.46997,0-.87.32001-.97998.77997l-5,22c-.06.29999.01001.61005.19995.84003.19.23999.48004.38.78003.38h9.52002l3.19995-24h-2.71997ZM13,24c.54999,0,1,.45001,1,1s-.45001,1-1,1-1-.45001-1-1,.45001-1,1-1ZM10,39c-.54999,0-1-.45001-1-1s.45001-1,1-1,1,.45001,1,1-.45001,1-1,1ZM11,33c-.54999,0-1-.45001-1-1s.45001-1,1-1,1,.45001,1,1-.45001,1-1,1ZM13,36c-.54999,0-1-.45001-1-1s.45001-1,1-1,1,.45001,1,1-.45001,1-1,1ZM14,30c-.54999,0-1-.45001-1-1s.45001-1,1-1,1,.45001,1,1-.45001,1-1,1Z"/>
        <polygon points="17.54211 43 23 43 23 19 20.74213 19 17.54211 43"/>
        <polygon points="25 19 25 43 30.45789 43 27.25787 19 25 19"/>
        <path d="M37.97998,19.77997c-.10999-.45996-.51001-.77997-.97998-.77997h-3v3c0,.54999-.45001,1-1,1s-1-.45001-1-1v-3h-2.71997l3.19995,24h9.52002c.29999,0,.59003-.14001.78003-.38.18994-.22998.25995-.54004.19995-.84003l-5-22ZM35,24c.54999,0,1,.45001,1,1s-.45001,1-1,1-1-.45001-1-1,.45001-1,1-1ZM33,29c0-.54999.45001-1,1-1s1,.45001,1,1-.45001,1-1,1-1-.45001-1-1ZM35,36c-.54999,0-1-.45001-1-1s.45001-1,1-1,1,.45001,1,1-.45001,1-1,1ZM36,32c0-.54999.45001-1,1-1s1,.45001,1,1-.45001,1-1,1-1-.45001-1-1ZM38,39c-.54999,0-1-.45001-1-1s.45001-1,1-1,1,.45001,1,1-.45001,1-1,1Z"/>
      </g>
    </g>
  </g>
</svg>