<?xml version="1.0" encoding="UTF-8"?>
<svg xmlns="http://www.w3.org/2000/svg" version="1.1" viewBox="0 0 48 48">
  <!-- Generator: Adobe Illustrator 28.7.1, SVG Export Plug-In . SVG Version: 1.2.0 Build 142)  -->
  <g>
    <g id="GLYPH">
      <g>
        <path d="M22,17h1v1.70996c-.88.39001-1.5,1.27002-1.5,2.29004-1.38,0-2.5,1.12-2.5,2.5s1.12,2.5,2.5,2.5h5c1.38,0,2.5-1.12,2.5-2.5s-1.12-2.5-2.5-2.5c0-1.02002-.62-1.90002-1.5-2.29004v-1.70996h1c2.76001,0,5-2.23999,5-5,0-.54999-.45001-1-1-1h-2c-1.64001,0-3.08997.81-4,2.02997-.90997-1.21997-2.35999-2.02997-4-2.02997h-2c-.54999,0-1,.45001-1,1,0,2.76001,2.23999,5,5,5Z"/>
        <path d="M11,26h.37311c1.85083,0,3.35657-1.50574,3.35657-3.35657,0-.37317-.30255-.67566-.67566-.67566h-1.37311c-1.09943,0-2.0683.53864-2.68091,1.35797-.61261-.81934-1.58142-1.35797-2.68085-1.35797h-1.37317c-.37311,0-.67566.30249-.67566.67566,0,1.85083,1.50574,3.35657,3.35657,3.35657h.37311v4.39001l2-1v-3.39001Z"/>
        <path d="M39,26h.37311c1.85083,0,3.35657-1.50574,3.35657-3.35657,0-.37317-.30255-.67566-.67566-.67566h-1.37311c-1.09949,0-2.0683.53864-2.68091,1.35797-.61261-.81934-1.58142-1.35797-2.68091-1.35797h-1.37311c-.37311,0-.67566.30249-.67566.67566,0,1.85083,1.50574,3.35657,3.35657,3.35657h.37311v3.39001l2,1v-4.39001Z"/>
        <path d="M32.68073,27.22534l-2.45068-1.22534c-.80005,1.20996-2.18005,2-3.73004,2h-5c-1.54999,0-2.92999-.79004-3.72998-2l-2.45074,1.22534,8.68073,5.20844,8.68073-5.20844Z"/>
        <path d="M13.20001,28.28998l-2.20001,1.10004v2.60999c0,.54999-.45001,1-1,1s-1-.45001-1-1v-1.60999l-3.45001,1.71997c-.33997.15997-.54999.51001-.54999.89001s.21002.72998.54999.89001l8.74005,4.37,7.76996-4.66003-8.85999-5.31Z"/>
        <path d="M42.45001,32.10999l-3.45001-1.71997v1.60999c0,.54999-.45001,1-1,1s-1-.45001-1-1v-2.60999l-2.20001-1.10004-8.85999,5.31,7.77002,4.66003,8.73999-4.37c.33997-.16003.54999-.51001.54999-.89001s-.21002-.73004-.54999-.89001Z"/>
        <path d="M16.41003,39.32001l7.13995,3.57001c.14001.06995.30005.10999.45001.10999.15002,0,.31-.04004.45001-.10999l7.14001-3.57001-7.59003-4.55005-7.58997,4.55005Z"/>
        <path d="M6,7h1.17139c.26709,0,.51855.104.70752.29297l1.41406,1.41406c.19531.19531.45117.29297.70703.29297s.51172-.09766.70703-.29297l1.41406-1.41406c.18896-.18896.44043-.29297.70752-.29297h1.17139c.55225,0,1-.44775,1-1s-.44775-1-1-1h-1.17139c-.80127,0-1.55518.31201-2.12158.87891l-.70703.70703-.70703-.70703c-.56641-.56689-1.32031-.87891-2.12158-.87891h-1.17139c-.55225,0-1,.44775-1,1s.44775,1,1,1Z"/>
        <path d="M20,7h1.17139c.26709,0,.51855.104.70752.29297l1.41406,1.41406c.19531.19531.45117.29297.70703.29297s.51172-.09766.70703-.29297l1.41406-1.41406c.18896-.18896.44043-.29297.70752-.29297h1.17139c.55225,0,1-.44775,1-1s-.44775-1-1-1h-1.17139c-.80127,0-1.55518.31201-2.12158.87891l-.70703.70703-.70703-.70703c-.56641-.56689-1.32031-.87891-2.12158-.87891h-1.17139c-.55225,0-1,.44775-1,1s.44775,1,1,1Z"/>
        <path d="M34,7h1.17139c.26709,0,.51855.104.70752.29297l1.41406,1.41406c.19531.19531.45117.29297.70703.29297s.51172-.09766.70703-.29297l1.41406-1.41406c.18896-.18896.44043-.29297.70752-.29297h1.17139c.55225,0,1-.44775,1-1s-.44775-1-1-1h-1.17139c-.80127,0-1.55518.31201-2.12158.87891l-.70703.70703-.70703-.70703c-.56641-.56689-1.32031-.87891-2.12158-.87891h-1.17139c-.55225,0-1,.44775-1,1s.44775,1,1,1Z"/>
      </g>
    </g>
  </g>
</svg>