<?xml version="1.0" encoding="utf-8"?>
<!-- Generator: Adobe Illustrator 25.4.1, SVG Export Plug-In . SVG Version: 6.00 Build 0)  -->
<svg version="1.0" id="Layer_1" xmlns="http://www.w3.org/2000/svg" xmlns:xlink="http://www.w3.org/1999/xlink" x="0px" y="0px"
	 viewBox="0 0 64 64" style="enable-background:new 0 0 64 64;" xml:space="preserve">
<style type="text/css">
	.st0{fill:none;stroke:#231F20;stroke-width:2;stroke-linecap:round;stroke-linejoin:round;stroke-miterlimit:10;}
</style>
<g>
	<path class="st0" d="M31.33,56.37H7.71c-1.31,0-2.22-1.33-1.74-2.56l12.57-32c0.99-2.54,1.5-5.23,1.5-7.95V7.54h-0.42
		c-1.48,0-2.67-1.2-2.67-2.67c0-0.74,0.3-1.4,0.78-1.88c0.48-0.49,1.15-0.78,1.89-0.78h14.1c1.47,0,2.67,1.19,2.67,2.66
		c0,0.74-0.3,1.41-0.78,1.89c-0.49,0.48-1.16,0.78-1.89,0.78h-0.41v6.33c0,2.71,0.51,5.4,1.5,7.92l3.99,10.16"/>
	<polyline class="st0" points="28.61,51.62 11.62,51.62 20.81,27.06 	"/>
	<path class="st0" d="M34.72,33.8c-3.53,0.89-6.97-2.43-6.97-2.43c-3.86-3.88-5.02-4.88-6.94-4.31"/>
	<g>
		<circle class="st0" cx="42.96" cy="46.58" r="15.21"/>
		<path class="st0" d="M30.09,54.66c0,0,6.55-4.88,12.56-3.02c0,0,8.29-4.11,12.56,3.92"/>
		<path class="st0" d="M43.07,54.35c0,0-1.4-5.37,0.18-11.16"/>
		<path class="st0" d="M43.24,43.19c0,0-1.05-2.05-4.26-3.23c-2.32-0.86-3.35-0.46-5.06-1.16c0,0,0.34,3.54,1.86,5.26
			C37.31,45.78,42.14,47.47,43.24,43.19z"/>
		<path class="st0" d="M50.35,45.57c1.83-1.39,2.85-4.79,2.85-4.79c-1.81,0.35-2.75-0.24-5.19,0.15c-3.38,0.54-4.81,2.34-4.81,2.34
			C43.45,47.68,48.51,46.96,50.35,45.57z"/>
	</g>
	<circle class="st0" cx="28.49" cy="21.98" r="2.02"/>
	<circle class="st0" cx="23.47" cy="36.37" r="2.02"/>
</g>
</svg>
