<?xml version="1.0" encoding="UTF-8"?>
<svg xmlns="http://www.w3.org/2000/svg" version="1.1" viewBox="0 0 48 48">
  <!-- Generator: Adobe Illustrator 28.7.1, SVG Export Plug-In . SVG Version: 1.2.0 Build 142)  -->
  <g>
    <g id="GLYPH">
      <g>
        <path d="M21,27h-6v-4c0-2.21002-1.78998-4-4-4h-3c-.54999,0-1,.45001-1,1v1c0,2.20996,1.78998,4,4,4h2v2h-6c-1.09998,0-2,.89996-2,2,0,1.09998.90002,2,2,2h14c1.09998,0,2-.90002,2-2,0-1.10004-.90002-2-2-2Z"/>
        <path d="M21,33H7c-1.10455,0-2,.89539-2,2,0,1.10455.89545,2,2,2h14c1.10455,0,2-.89545,2-2,0-1.10461-.89545-2-2-2Z"/>
        <path d="M21,39H7c-1.10455,0-2,.89539-2,2,0,1.10455.89545,2,2,2h14c1.10455,0,2-.89545,2-2,0-1.10461-.89545-2-2-2Z"/>
        <path d="M33,14c0-4.96234-4.03723-9-9-9s-9,4.03766-9,9,4.03723,9,9,9,9-4.03772,9-9ZM23.5,13h1c1.37842,0,2.5,1.12109,2.5,2.5,0,1.20764-.86029,2.21716-2,2.44946v1.05054c0,.55273-.44775,1-1,1s-1-.44727-1-1v-1h-1c-.55225,0-1-.44727-1-1s.44775-1,1-1h2.5c.27588,0,.5-.22461.5-.5s-.22412-.5-.5-.5h-1c-1.37842,0-2.5-1.12109-2.5-2.5,0-1.20764.86029-2.21716,2-2.44946v-1.05054c0-.55273.44775-1,1-1s1,.44727,1,1v1h1c.55225,0,1,.44727,1,1s-.44775,1-1,1h-2.5c-.27588,0-.5.22461-.5.5s.22412.5.5.5Z"/>
        <path d="M41,33h-14c-1.10455,0-2,.89539-2,2,0,1.10455.89545,2,2,2h14c1.10455,0,2-.89545,2-2,0-1.10461-.89545-2-2-2Z"/>
        <path d="M41,39h-14c-1.10455,0-2,.89539-2,2,0,1.10455.89545,2,2,2h14c1.10455,0,2-.89545,2-2,0-1.10461-.89545-2-2-2Z"/>
        <path d="M33,27h-6c-1.09998,0-2,.89996-2,2,0,1.09998.90002,2,2,2h14c1.09998,0,2-.90002,2-2,0-1.10004-.90002-2-2-2h-6v-2h2c2.21002,0,4-1.79004,4-4v-1c0-.54999-.45001-1-1-1h-3c-2.21002,0-4,1.78998-4,4v4Z"/>
      </g>
    </g>
  </g>
</svg>