<?xml version="1.0" encoding="UTF-8"?>
<svg xmlns="http://www.w3.org/2000/svg" version="1.1" viewBox="0 0 48 48">
  <!-- Generator: Adobe Illustrator 28.7.1, SVG Export Plug-In . SVG Version: 1.2.0 Build 142)  -->
  <g>
    <g id="GLYPH">
      <g>
        <path d="M33,37v-3c0-.54999.45001-1,1-1h1v-14H13v14h1c.54999,0,1,.45001,1,1v3h4v-3c0-.54999.45001-1,1-1h8c.54999,0,1,.45001,1,1v3h4ZM21,30h-2c-2.21002,0-4-1.79004-4-4s1.78998-4,4-4h2c.54999,0,1,.45001,1,1s-.45001,1-1,1h-2c-1.09998,0-2,.89996-2,2,0,1.09998.90002,2,2,2h2c.54999,0,1,.45001,1,1s-.45001,1-1,1ZM21,26c0-.54999.45001-1,1-1h4c.54999,0,1,.45001,1,1s-.45001,1-1,1h-4c-.54999,0-1-.45001-1-1ZM27,30c-.54999,0-1-.45001-1-1s.45001-1,1-1h2c1.09998,0,2-.90002,2-2,0-1.10004-.90002-2-2-2h-2c-.54999,0-1-.45001-1-1s.45001-1,1-1h2c2.21002,0,4,1.78998,4,4s-1.78998,4-4,4h-2Z"/>
        <path d="M42.45001,14.10999L24.45001,5.10999c-.28003-.15002-.62-.15002-.90002,0L5.54999,14.10999c-.33997.16998-.54999.51001-.54999.89001v2h38v-2c0-.38-.21002-.72003-.54999-.89001ZM24,12c-.54999,0-1-.45001-1-1s.45001-1,1-1,1,.45001,1,1-.45001,1-1,1Z"/>
        <rect x="21" y="35" width="6" height="2"/>
        <rect x="35" y="35" width="8" height="2"/>
        <rect x="5" y="35" width="8" height="2"/>
        <rect x="37" y="19" width="4" height="14"/>
        <path d="M5,42c0,.54999.45001,1,1,1h36c.54999,0,1-.45001,1-1v-3H5v3Z"/>
        <rect x="7" y="19" width="4" height="14"/>
      </g>
    </g>
  </g>
</svg>