<?xml version="1.0" encoding="utf-8"?>
<!-- Generator: Adobe Illustrator 24.0.2, SVG Export Plug-In . SVG Version: 6.00 Build 0)  -->
<svg version="1.1" id="GLYPH" xmlns="http://www.w3.org/2000/svg" xmlns:xlink="http://www.w3.org/1999/xlink" x="0px" y="0px"
	 viewBox="0 0 64 64" style="enable-background:new 0 0 64 64;" xml:space="preserve">
<g>
	<path d="M56,47H17V8c0-0.55-0.45-1-1-1h-4c-0.55,0-1,0.45-1,1v4H8c-0.55,0-1,0.45-1,1s0.45,1,1,1h3v2H8c-0.55,0-1,0.45-1,1
		s0.45,1,1,1h3v2H8c-0.55,0-1,0.45-1,1s0.45,1,1,1h3v2H8c-0.55,0-1,0.45-1,1s0.45,1,1,1h3v2H8c-0.55,0-1,0.45-1,1s0.45,1,1,1h3v17H8
		c-0.55,0-1,0.45-1,1v4c0,0.55,0.45,1,1,1h3v3c0,0.55,0.45,1,1,1h4c0.55,0,1-0.45,1-1v-3h39c0.55,0,1-0.45,1-1v-4
		C57,47.45,56.55,47,56,47z"/>
	<path d="M24,17h-4c-0.55,0-1,0.45-1,1s0.45,1,1,1h2v1c0,0.55,0.45,1,1,1s1-0.45,1-1v-1c1.65,0,3-1.35,3-3s-1.35-3-3-3h-2
		c-0.55,0-1-0.45-1-1s0.45-1,1-1h4c0.55,0,1-0.45,1-1s-0.45-1-1-1h-2V8c0-0.55-0.45-1-1-1s-1,0.45-1,1v1c-1.65,0-3,1.35-3,3
		s1.35,3,3,3h2c0.55,0,1,0.45,1,1S24.55,17,24,17z"/>
	<path d="M20,45h6c0.55,0,1-0.45,1-1V24c0-0.55-0.45-1-1-1h-6c-0.55,0-1,0.45-1,1v20C19,44.55,19.45,45,20,45z"/>
	<path d="M30,45h6c0.55,0,1-0.45,1-1V18c0-0.55-0.45-1-1-1h-6c-0.55,0-1,0.45-1,1v26C29,44.55,29.45,45,30,45z"/>
	<path d="M40,45h6c0.55,0,1-0.45,1-1V26c0-0.33-0.17-0.65-0.45-0.83l-6-4c-0.31-0.21-0.7-0.22-1.03-0.05C39.2,21.29,39,21.63,39,22
		v22C39,44.55,39.45,45,40,45z"/>
	<path d="M56,25h-6c-0.55,0-1,0.45-1,1v18c0,0.55,0.45,1,1,1h6c0.55,0,1-0.45,1-1V26C57,25.45,56.55,25,56,25z"/>
	<path d="M44,16h3v6c0,0.55,0.45,1,1,1h4c0.55,0,1-0.45,1-1v-6h3c0.39,0,0.75-0.23,0.91-0.58c0.16-0.35,0.11-0.77-0.15-1.07l-6-7
		c-0.38-0.44-1.14-0.44-1.52,0l-6,7c-0.25,0.3-0.31,0.71-0.15,1.07C43.25,15.77,43.61,16,44,16z"/>
	<path d="M30,15h6c0.55,0,1-0.45,1-1s-0.45-1-1-1h-6c-0.55,0-1,0.45-1,1S29.45,15,30,15z"/>
	<path d="M30,11h6c0.55,0,1-0.45,1-1s-0.45-1-1-1h-6c-0.55,0-1,0.45-1,1S29.45,11,30,11z"/>
</g>
</svg>
