<?xml version="1.0" encoding="utf-8"?>
<!-- Generator: Adobe Illustrator 25.4.1, SVG Export Plug-In . SVG Version: 6.00 Build 0)  -->
<svg version="1.0" id="Layer_1" xmlns="http://www.w3.org/2000/svg" xmlns:xlink="http://www.w3.org/1999/xlink" x="0px" y="0px"
	 viewBox="0 0 64 64" style="enable-background:new 0 0 64 64;" xml:space="preserve">
<style type="text/css">
	.st0{fill:none;stroke:#231F20;stroke-width:2;stroke-linecap:round;stroke-linejoin:round;stroke-miterlimit:10;}
</style>
<g>
	<rect x="29.13" y="8.9" class="st0" width="8.2" height="6.87"/>
	<rect x="28.11" y="15.77" class="st0" width="10.24" height="6.92"/>
	<path class="st0" d="M45.2,61.31H21.26c-1.37,0-2.49-1.11-2.49-2.49V30.91c0-4.54,3.68-8.22,8.22-8.22h12.49
		c4.54,0,8.22,3.68,8.22,8.22v27.91C47.69,60.19,46.58,61.31,45.2,61.31z"/>
	<path class="st0" d="M14.53,21.03l-2.39-0.58l3.42-14.02c0.53-2.19,2.5-3.73,4.75-3.73h31.56v6.2H21.34l-2.29,9.39
		C18.56,20.29,16.53,21.52,14.53,21.03z"/>
	<path class="st0" d="M43.24,8.9c0,0-0.51,8.67,6.51,10.33"/>
	<line class="st0" x1="47.96" y1="2.69" x2="47.96" y2="8.84"/>
	<ellipse class="st0" cx="33.23" cy="39.31" rx="8.81" ry="5.83"/>
	<line class="st0" x1="36.95" y1="34.02" x2="28.88" y2="44.38"/>
</g>
</svg>
