<?xml version="1.0" encoding="utf-8"?>
<!-- Generator: Adobe Illustrator 25.4.1, SVG Export Plug-In . SVG Version: 6.00 Build 0)  -->
<svg version="1.0" id="Layer_1" xmlns="http://www.w3.org/2000/svg" xmlns:xlink="http://www.w3.org/1999/xlink" x="0px" y="0px"
	 viewBox="0 0 64 64" style="enable-background:new 0 0 64 64;" xml:space="preserve">
<style type="text/css">
	.st0{fill:none;stroke:#231F20;stroke-width:2;stroke-linecap:round;stroke-linejoin:round;stroke-miterlimit:10;}
</style>
<g>
	<g>
		<path class="st0" d="M19.56,58.15l-7.27,4.15l-5.71-6.12c-1.61-1.73-2.35-4.11-1.99-6.45l1.54-10.15l18.79,2.85l-1.54,10.15
			C23.02,54.92,21.61,56.97,19.56,58.15z"/>
		<polygon class="st0" points="25.85,9.71 19.87,12.4 14.95,8.06 15.92,1.7 26.81,3.35 		"/>
		<line class="st0" x1="13.65" y1="40.72" x2="18.18" y2="10.92"/>
		<line class="st0" x1="17.4" y1="41.29" x2="21.93" y2="11.48"/>
		<path class="st0" d="M8.82,42.76l-0.97,6c0,0-0.44,3.39,1.69,4.55"/>
	</g>
	<g>
		<polygon class="st0" points="44.54,8.04 39.8,12.58 33.72,10.13 32.5,3.82 43.32,1.73 		"/>
		<line class="st0" x1="45.32" y1="51.24" x2="37.71" y2="11.75"/>
		<line class="st0" x1="49.05" y1="50.52" x2="41.43" y2="11.02"/>
		<g>
			<path class="st0" d="M59.5,57.3l-1.13-5.85c-0.28-1.45-1.68-2.4-3.13-2.12l-16.11,3.1c-1.45,0.28-2.4,1.68-2.12,3.13l1.13,5.85"
				/>
			<line class="st0" x1="41.84" y1="51.91" x2="43.47" y2="60.39"/>
			<line class="st0" x1="47.18" y1="50.88" x2="48.82" y2="59.36"/>
			<line class="st0" x1="52.52" y1="49.85" x2="54.16" y2="58.33"/>
		</g>
	</g>
</g>
</svg>
