<?xml version="1.0" encoding="UTF-8"?>
<svg xmlns="http://www.w3.org/2000/svg" version="1.1" viewBox="0 0 48 48">
  <!-- Generator: Adobe Illustrator 28.7.1, SVG Export Plug-In . SVG Version: 1.2.0 Build 142)  -->
  <g>
    <g id="GLYPH">
      <g>
        <rect x="5" y="39" width="38" height="4" rx="1" ry="1"/>
        <path d="M5.94,17.25c.2265.51483.87994.71228,1.35999.46997.01215-.00616,16.70001-8.42999,16.70001-8.42999l16.70001,8.42999c.49042.24518,1.12921.02692,1.35999-.46997.00281-.00604.84998-1.83002.84998-1.83002.22003-.48999.02002-1.07001-.45996-1.31L24.45001,5.10999c-.27997-.15002-.62-.15002-.90002,0L5.54999,14.10999c-.47998.23999-.67999.82001-.45996,1.31l.84998,1.83002Z"/>
        <path d="M15,6c0-.54999-.45001-1-1-1h-4c-.54999,0-1,.45001-1,1v4.14996l6-3v-1.14996Z"/>
        <path d="M20,20h-.82861c.4126,1.16406,1.5249,2,2.82861,2h.82861c-.4126-1.16406-1.5249-2-2.82861-2Z"/>
        <path d="M28.82861,20h-.82861c-1.30371,0-2.41602.83594-2.82861,2h.82861c1.30371,0,2.41602-.83594,2.82861-2Z"/>
        <path d="M9,19.10999v17.89001h30v-17.89001l-15-7.58002-15,7.58002ZM28,18h2c.54999,0,1,.45001,1,1,0,2.76001-2.23999,5-5,5h-1v2.17999c1.16003.41998,2,1.52002,2,2.82001,1.65002,0,3,1.34998,3,3s-1.34998,3-3,3h-6c-1.64996,0-3-1.35004-3-3s1.35004-3,3-3c0-1.29999.84003-2.40002,2-2.82001v-2.17999h-1c-2.76001,0-5-2.23999-5-5,0-.54999.45001-1,1-1h2c1.64001,0,3.09003.81,4,2.02997.91003-1.21997,2.35999-2.02997,4-2.02997Z"/>
        <path d="M23,29v1c0,.55273-.44775,1-1,1h-1c-.55127,0-1,.44824-1,1s.44873,1,1,1h6c.55127,0,1-.44824,1-1s-.44873-1-1-1h-1c-.55225,0-1-.44727-1-1v-1c0-.55176-.44873-1-1-1s-1,.44824-1,1Z"/>
      </g>
    </g>
  </g>
</svg>