<?xml version="1.0" encoding="utf-8"?>
<!-- Generator: Adobe Illustrator 25.4.1, SVG Export Plug-In . SVG Version: 6.00 Build 0)  -->
<svg version="1.0" id="Layer_1" xmlns="http://www.w3.org/2000/svg" xmlns:xlink="http://www.w3.org/1999/xlink" x="0px" y="0px"
	 viewBox="0 0 64 64" style="enable-background:new 0 0 64 64;" xml:space="preserve">
<style type="text/css">
	.st0{fill:none;stroke:#231F20;stroke-width:2;stroke-linecap:round;stroke-linejoin:round;stroke-miterlimit:10;}
</style>
<g>
	<g>
		<path class="st0" d="M61.62,43.87L34.5,56.11l-11.53-27.8c-0.69-1.67,0.07-3.6,1.72-4.34L44,15.26c1.65-0.75,3.6-0.04,4.39,1.58
			L61.62,43.87z"/>
		<polygon class="st0" points="9.34,40.27 13.09,33.1 16.97,35.45 13.48,42.12 		"/>
		<path class="st0" d="M24.74,23.95l-0.54-1.19c-2.39-5.3-0.04-11.54,5.27-13.94l0,0c5.3-2.39,11.54-0.04,13.94,5.27l0.54,1.19"/>
		<path class="st0" d="M48.17,16.37c0,0,5.47-4.68,9.98,2.33c1.39,2.15,3.22,6.74,3.45,9.18c0.3,3.26-1,5.14-4.5,6.75"/>
		<line class="st0" x1="34.5" y1="56.11" x2="14.19" y2="40.77"/>
		<line class="st0" x1="29.35" y1="43.7" x2="16.25" y2="36.84"/>
		<line class="st0" x1="31.76" y1="49.5" x2="58.47" y2="37.44"/>
	</g>
	<path class="st0" d="M9.83,49.54c0,2.06-1.67,3.73-3.73,3.73s-3.73-1.67-3.73-3.73s3.73-6,3.73-6S9.83,47.48,9.83,49.54z"/>
	<path class="st0" d="M18.48,52.63c0,1.57-1.27,2.84-2.84,2.84s-2.84-1.27-2.84-2.84s2.84-4.57,2.84-4.57S18.48,51.06,18.48,52.63z"
		/>
</g>
</svg>
